# xmcd
#
# Track frame offsets: 
#        150
#        16155
#        29815
#        46972
#        58415
#        73740
#        87857
#        112227
#        134505
#        156477
#        176977
#        188910
#        211877
#        239975
#        252402
#        269775
#        283015
#        304402
#
# Disc length: 4271 seconds
#
# Revision: 0
# Processed by: cddbd v1.5.2PL0 Copyright (c) Steve Scherf et al.
# Submitted via: ExactAudioCopy v0.95b4
#
DISCID=3010ad12
DTITLE=John F Wands - Wands Upon A Time
DYEAR=1999
DGENRE=Blues
TTITLE0=Good Morning Blues
TTITLE1=Stranger Blues
TTITLE2=Black, Brown And White
TTITLE3=Marchin' Thru' Georgia
TTITLE4=Alberta
TTITLE5=Truck Drivin' Queen
TTITLE6=Magnolia
TTITLE7=Careless Love
TTITLE8=Gold Watch And Chain
TTITLE9=The Lady Came From Baltimore
TTITLE10=Crawjane
TTITLE11=Codyne Song
TTITLE12=Diamond Ring
TTITLE13=Baby Please Don't Go
TTITLE14=Parchman Farm
TTITLE15=Chaingang
TTITLE16=I Saw The Light
TTITLE17=Please See That My Grave Is Kept Clean
EXTD=
EXTT0=
EXTT1=
EXTT2=
EXTT3=
EXTT4=
EXTT5=
EXTT6=
EXTT7=
EXTT8=
EXTT9=
EXTT10=
EXTT11=
EXTT12=
EXTT13=
EXTT14=
EXTT15=
EXTT16=
EXTT17=
PLAYORDER=
